<svg xmlns="http://www.w3.org/2000/svg" viewBox="0 0 24 24" width="24" height="24" aria-hidden="true">
  <defs>
    <linearGradient id="k-center" x1="0%" y1="0%" x2="0%" y2="100%">
      <stop offset="0%" style="stop-color:#2563eb"/>
      <stop offset="100%" style="stop-color:#1e40af"/>
    </linearGradient>
    <clipPath id="circle-clip">
      <circle cx="12" cy="12" r="12"/>
    </clipPath>
  </defs>
  <g clip-path="url(#circle-clip)">
    <!-- Cuatro cuadrantes: relleno completo de un solo color por porción -->
    <path fill="#e879f9" d="M12 12 L12 0 A12 12 0 0 1 0 12 Z"/>
    <path fill="#4ade80" d="M12 12 L24 12 A12 12 0 0 1 12 0 Z"/>
    <path fill="#fb923c" d="M12 12 L12 24 A12 12 0 0 1 24 12 Z"/>
    <path fill="#60a5fa" d="M12 12 L0 12 A12 12 0 0 1 12 24 Z"/>
  </g>
  <circle cx="12" cy="12" r="12" fill="none" stroke="#1e293b" stroke-width="0.5"/>
  <circle cx="12" cy="12" r="6" fill="url(#k-center)"/>
  <circle cx="12" cy="12" r="6" fill="none" stroke="rgba(255,255,255,0.2)" stroke-width="0.25"/>
  <text x="12" y="13.4" text-anchor="middle" fill="#fff" font-family="system-ui, Arial, sans-serif" font-size="4" font-weight="700" letter-spacing="0.06">KOLB</text>
</svg>
